# xmcd CD database file
#
# Track frame offsets:
#	150
#	14953
#	40800
#	60740
#	82188
#	103480
#
# Disc length: 1670 seconds
#
# Revision: 0
# Processed by: cddbd v1.5.1PL0 Copyright (c) Steve Scherf et al.
# Submitted via: CDex 1.51
#
DISCID=56068406
DTITLE=Stainless - はじまりの丘
DYEAR=2000
DGENRE=Pop
TTITLE0=はじまりの丘
TTITLE1=Laugh
TTITLE2=Magic Lamp
TTITLE3=ふたり
TTITLE4=サンデーモーニー
TTITLE5=さよならガール
EXTD=YEAR: 2000
EXTT0=
EXTT1=
EXTT2=
EXTT3=
EXTT4=
EXTT5=
PLAYORDER=
